# xmcd CD database file
#
# Track frame offsets:
#	150
#	17396
#	43801
#	67133
#	99766
#	126672
#	149145
#	175583
#	198164
#	226314
#
# Disc length: 3434 seconds
#
# Revision: 3
# Processed by: cddbd v1.5.2PL0 Copyright (c) Steve Scherf et al.
# Submitted via: CDex 1.70beta2
#
DISCID=8a0d680a
DTITLE=Akiko Toyama - Lilac Songbook
DYEAR=2007
DGENRE=Jazz
TTITLE0=1111
TTITLE1=Under the Lilac Tree
TTITLE2=Ray of Hope
TTITLE3=Nostalgia
TTITLE4=29
TTITLE5=Snowing Town
TTITLE6=Before Dawn
TTITLE7=Bateaux-Mouches
TTITLE8=遠くを
TTITLE9=Somewhere in Time
EXTD=YEAR: 2007
EXTT0=
EXTT1=
EXTT2=
EXTT3=
EXTT4=
EXTT5=
EXTT6=
EXTT7=
EXTT8=
EXTT9=
PLAYORDER=
